<?xml version="1.0" encoding="UTF-8"?>
<svg xmlns="http://www.w3.org/2000/svg" xmlns:xlink="http://www.w3.org/1999/xlink" width="58pt" height="30pt" viewBox="0 0 58 30" version="1.1">
<g id="surface1">
<path style=" stroke:none;fill-rule:nonzero;fill:rgb(0%,0%,0%);fill-opacity:1;" d="M 15.191406 15.203125 C 14.613281 15.457031 14.015625 16.277344 14.015625 16.828125 C 14.015625 17.410156 14.46875 18.183594 14.96875 18.480469 C 15.644531 18.859375 18.671875 18.859375 19.347656 18.480469 C 19.847656 18.183594 20.300781 17.410156 20.300781 16.828125 C 20.300781 16.261719 19.703125 15.441406 19.089844 15.1875 C 18.367188 14.90625 15.886719 14.90625 15.191406 15.203125 Z M 19.15625 15.976562 C 19.605469 16.386719 19.605469 17.269531 19.140625 17.757812 C 18.816406 18.089844 18.65625 18.121094 17.175781 18.121094 C 15.742188 18.121094 15.53125 18.089844 15.191406 17.773438 C 14.726562 17.347656 14.675781 16.402344 15.113281 16.039062 C 15.5625 15.644531 15.789062 15.613281 17.335938 15.644531 C 18.527344 15.675781 18.882812 15.742188 19.15625 15.976562 Z M 19.15625 15.976562 "/>
<path style=" stroke:none;fill-rule:nonzero;fill:rgb(0%,0%,0%);fill-opacity:1;" d="M 20.785156 16.84375 C 20.785156 18.640625 20.800781 18.75 21.105469 18.75 C 21.410156 18.75 21.429688 18.640625 21.429688 17.175781 L 21.429688 15.597656 L 22.734375 15.597656 C 24.132812 15.597656 24.648438 15.757812 24.648438 16.214844 C 24.648438 16.6875 24.296875 16.84375 23.070312 16.890625 L 21.894531 16.9375 L 22.992188 17.835938 C 23.84375 18.546875 24.199219 18.75 24.632812 18.75 L 25.183594 18.75 L 24.410156 18.167969 L 23.636719 17.566406 L 24.246094 17.472656 C 24.585938 17.410156 24.957031 17.238281 25.085938 17.078125 C 25.390625 16.671875 25.34375 15.851562 24.988281 15.425781 C 24.699219 15.078125 24.554688 15.046875 22.734375 15 L 20.785156 14.9375 Z M 20.785156 16.84375 "/>
<path style=" stroke:none;fill-rule:nonzero;fill:rgb(0%,0%,0%);fill-opacity:1;" d="M 26.746094 16.84375 C 25.472656 18.71875 25.457031 18.75 25.890625 18.75 C 26.277344 18.75 26.46875 18.5625 27.261719 17.332031 C 27.757812 16.542969 28.242188 15.914062 28.308594 15.914062 C 28.421875 15.914062 29.082031 16.90625 29.289062 17.363281 C 29.320312 17.441406 28.902344 17.488281 28.371094 17.488281 C 27.421875 17.488281 27.390625 17.503906 27.582031 17.804688 C 27.757812 18.074219 27.96875 18.121094 28.871094 18.121094 C 29.804688 18.121094 29.949219 18.167969 30.046875 18.433594 C 30.113281 18.65625 30.289062 18.75 30.628906 18.75 C 31.207031 18.75 31.238281 18.828125 29.691406 16.621094 C 29.097656 15.757812 28.46875 15.03125 28.324219 15 C 28.128906 14.96875 27.679688 15.503906 26.746094 16.84375 Z M 26.746094 16.84375 "/>
<path style=" stroke:none;fill-rule:nonzero;fill:rgb(0%,0%,0%);fill-opacity:1;" d="M 31.898438 15.253906 C 31.5625 15.410156 31.222656 15.757812 31.03125 16.117188 C 30.628906 16.9375 30.789062 17.648438 31.511719 18.261719 C 32.046875 18.734375 32.125 18.75 33.558594 18.75 C 34.960938 18.75 35.445312 18.625 35.445312 18.246094 C 35.445312 18.183594 34.734375 18.121094 33.867188 18.121094 C 32.433594 18.121094 32.253906 18.089844 31.949219 17.757812 C 31.480469 17.253906 31.417969 16.984375 31.675781 16.417969 C 31.949219 15.773438 32.433594 15.597656 33.914062 15.597656 C 34.945312 15.597656 35.136719 15.550781 35.285156 15.285156 C 35.445312 14.984375 35.414062 14.96875 33.960938 14.96875 C 32.851562 14.96875 32.320312 15.046875 31.898438 15.253906 Z M 31.898438 15.253906 "/>
<path style=" stroke:none;fill-rule:nonzero;fill:rgb(0%,0%,0%);fill-opacity:1;" d="M 35.960938 16.8125 L 36.007812 18.671875 L 37.84375 18.71875 C 39.585938 18.765625 40.117188 18.65625 40.117188 18.261719 C 40.117188 18.183594 39.34375 18.105469 38.394531 18.089844 L 36.667969 18.039062 L 36.652344 16.542969 C 36.652344 15.109375 36.636719 15.046875 36.28125 15 C 35.910156 14.953125 35.910156 14.953125 35.960938 16.8125 Z M 35.960938 16.8125 "/>
<path style=" stroke:none;fill-rule:nonzero;fill:rgb(0%,0%,0%);fill-opacity:1;" d="M 41.308594 15.1875 C 40.230469 15.644531 39.828125 16.796875 40.359375 17.804688 C 40.746094 18.53125 41.355469 18.75 43 18.75 C 44.289062 18.75 44.484375 18.71875 44.628906 18.433594 C 44.789062 18.136719 44.757812 18.121094 43.179688 18.121094 C 41.777344 18.121094 41.519531 18.074219 41.246094 17.804688 C 40.679688 17.253906 40.839844 17.175781 42.5 17.175781 C 43.984375 17.175781 44.464844 17.046875 44.464844 16.671875 C 44.464844 16.605469 43.675781 16.542969 42.695312 16.542969 C 41.726562 16.542969 40.921875 16.480469 40.921875 16.417969 C 40.921875 16.339844 41.066406 16.148438 41.261719 15.976562 C 41.535156 15.742188 41.90625 15.660156 43 15.628906 C 44.175781 15.582031 44.433594 15.519531 44.59375 15.269531 C 44.789062 14.984375 44.722656 14.96875 43.308594 14.96875 C 42.421875 14.984375 41.597656 15.0625 41.308594 15.1875 Z M 41.308594 15.1875 "/>
<path style=" stroke:none;fill-rule:nonzero;fill:rgb(0%,0%,0%);fill-opacity:1;" d="M 21.941406 21.066406 C 26.359375 21.097656 33.574219 21.097656 37.972656 21.066406 C 42.386719 21.050781 38.78125 21.035156 29.964844 21.035156 C 21.152344 21.035156 17.546875 21.050781 21.941406 21.066406 Z M 21.941406 21.066406 "/>
<path style=" stroke:none;fill-rule:nonzero;fill:rgb(0%,0%,0%);fill-opacity:1;" d="M 22.910156 23.523438 C 22.425781 24.027344 22.410156 25.460938 22.878906 25.964844 C 23.34375 26.453125 24.539062 26.453125 24.875 25.964844 C 25.019531 25.777344 25.132812 25.558594 25.132812 25.492188 C 25.132812 25.257812 24.359375 25.367188 24.261719 25.605469 C 24.132812 25.933594 23.570312 25.902344 23.359375 25.539062 C 23.152344 25.148438 23.152344 24.328125 23.359375 23.933594 C 23.585938 23.554688 24.101562 23.539062 24.328125 23.933594 C 24.488281 24.25 24.988281 24.28125 25.101562 23.980469 C 25.132812 23.886719 25.003906 23.664062 24.828125 23.492188 C 24.34375 23.019531 23.359375 23.050781 22.910156 23.523438 Z M 22.910156 23.523438 "/>
<path style=" stroke:none;fill-rule:nonzero;fill:rgb(0%,0%,0%);fill-opacity:1;" d="M 25.617188 24.738281 L 25.617188 26.3125 L 26.664062 26.3125 C 27.484375 26.3125 27.710938 26.265625 27.710938 26.078125 C 27.710938 25.902344 27.519531 25.839844 26.984375 25.839844 L 26.261719 25.839844 L 26.261719 24.5 C 26.261719 23.273438 26.230469 23.160156 25.9375 23.160156 C 25.632812 23.160156 25.617188 23.273438 25.617188 24.738281 Z M 25.617188 24.738281 "/>
<path style=" stroke:none;fill-rule:nonzero;fill:rgb(0%,0%,0%);fill-opacity:1;" d="M 28.421875 23.523438 C 28.050781 23.839844 27.96875 24.027344 27.96875 24.707031 C 27.953125 25.792969 28.421875 26.3125 29.433594 26.3125 C 30.449219 26.3125 30.933594 25.808594 30.933594 24.738281 C 30.933594 24.089844 30.851562 23.855469 30.53125 23.554688 C 30 23.019531 29.03125 23.019531 28.421875 23.523438 Z M 30.128906 24.121094 C 30.273438 24.453125 30.289062 24.785156 30.191406 25.179688 C 30.078125 25.652344 29.964844 25.777344 29.597656 25.808594 C 28.96875 25.886719 28.679688 25.589844 28.679688 24.863281 C 28.679688 23.996094 28.917969 23.632812 29.46875 23.632812 C 29.820312 23.632812 29.964844 23.746094 30.128906 24.121094 Z M 30.128906 24.121094 "/>
<path style=" stroke:none;fill-rule:nonzero;fill:rgb(0%,0%,0%);fill-opacity:1;" d="M 31.578125 24.421875 C 31.578125 25.964844 31.820312 26.3125 32.929688 26.3125 C 33.996094 26.3125 34.316406 25.839844 34.316406 24.328125 C 34.316406 23.273438 34.285156 23.160156 33.996094 23.160156 C 33.703125 23.160156 33.671875 23.273438 33.671875 24.234375 C 33.671875 25.507812 33.460938 25.886719 32.785156 25.808594 L 32.304688 25.761719 L 32.253906 24.453125 C 32.207031 23.289062 32.175781 23.160156 31.898438 23.160156 C 31.609375 23.160156 31.578125 23.273438 31.578125 24.421875 Z M 31.578125 24.421875 "/>
<path style=" stroke:none;fill-rule:nonzero;fill:rgb(0%,0%,0%);fill-opacity:1;" d="M 34.960938 24.753906 L 34.960938 26.34375 L 35.945312 26.28125 C 36.734375 26.21875 37.007812 26.140625 37.234375 25.855469 C 37.539062 25.492188 37.652344 24.40625 37.441406 23.871094 C 37.28125 23.476562 36.507812 23.160156 35.6875 23.160156 L 34.960938 23.160156 Z M 36.570312 23.949219 C 37.199219 24.5625 36.765625 25.839844 35.929688 25.839844 C 35.636719 25.839844 35.605469 25.730469 35.605469 24.738281 C 35.605469 23.746094 35.636719 23.632812 35.929688 23.632812 C 36.105469 23.632812 36.394531 23.777344 36.570312 23.949219 Z M 36.570312 23.949219 "/>
</g>
</svg>
